<svg width="2000" height="2000" viewBox="0 0 2000 2000" fill="none" xmlns="http://www.w3.org/2000/svg">
<line x1="949.5" y1="-6.55671e-08" x2="949.5" y2="2000" stroke="#455B66" stroke-width="3"/>
<line x1="999.5" y1="-6.55671e-08" x2="999.5" y2="2000" stroke="#455B66" stroke-width="3"/>
<line x1="1049.5" y1="-6.55671e-08" x2="1049.5" y2="2000" stroke="#455B66" stroke-width="3"/>
<line x1="1099.5" y1="-6.55671e-08" x2="1099.5" y2="2000" stroke="#455B66" stroke-width="3"/>
<line x1="1149.5" y1="-6.55671e-08" x2="1149.5" y2="2000" stroke="#455B66" stroke-width="3"/>
<line x1="1199.5" y1="-6.55671e-08" x2="1199.5" y2="2000" stroke="#455B66" stroke-width="3"/>
<line x1="1249.5" y1="-6.55671e-08" x2="1249.5" y2="2000" stroke="#455B66" stroke-width="3"/>
<line x1="1299.5" y1="-6.55671e-08" x2="1299.5" y2="2000" stroke="#455B66" stroke-width="3"/>
<line x1="1349.5" y1="-6.55671e-08" x2="1349.5" y2="2000" stroke="#455B66" stroke-width="3"/>
<line x1="1399.5" y1="-6.55671e-08" x2="1399.5" y2="2000" stroke="#455B66" stroke-width="3"/>
<line x1="1449.5" y1="-6.55671e-08" x2="1449.5" y2="2000" stroke="#455B66" stroke-width="3"/>
<line x1="1499.5" y1="-6.55671e-08" x2="1499.5" y2="2000" stroke="#455B66" stroke-width="3"/>
<line x1="1549.5" y1="-6.55671e-08" x2="1549.5" y2="2000" stroke="#455B66" stroke-width="3"/>
<line x1="1599.5" y1="-6.55671e-08" x2="1599.5" y2="2000" stroke="#455B66" stroke-width="3"/>
<line x1="1649.5" y1="-6.55671e-08" x2="1649.5" y2="2000" stroke="#455B66" stroke-width="3"/>
<line x1="1699.5" y1="-6.55671e-08" x2="1699.5" y2="2000" stroke="#455B66" stroke-width="3"/>
<line x1="1749.5" y1="-6.55671e-08" x2="1749.5" y2="2000" stroke="#455B66" stroke-width="3"/>
<line x1="1799.5" y1="-6.55671e-08" x2="1799.5" y2="2000" stroke="#455B66" stroke-width="3"/>
<line x1="1849.5" y1="-6.55671e-08" x2="1849.5" y2="2000" stroke="#455B66" stroke-width="3"/>
<line x1="1899.5" y1="-6.55671e-08" x2="1899.5" y2="2000" stroke="#455B66" stroke-width="3"/>
<line x1="1949.5" y1="-6.55671e-08" x2="1949.5" y2="2000" stroke="#455B66" stroke-width="3"/>
<line x1="49.5" y1="-6.55671e-08" x2="49.5001" y2="2000" stroke="#455B66" stroke-width="3"/>
<line x1="99.5" y1="-6.55671e-08" x2="99.5001" y2="2000" stroke="#455B66" stroke-width="3"/>
<line x1="149.5" y1="-6.55671e-08" x2="149.5" y2="2000" stroke="#455B66" stroke-width="3"/>
<line x1="199.5" y1="-6.55671e-08" x2="199.5" y2="2000" stroke="#455B66" stroke-width="3"/>
<line x1="249.5" y1="-6.55671e-08" x2="249.5" y2="2000" stroke="#455B66" stroke-width="3"/>
<line x1="299.5" y1="-6.55671e-08" x2="299.5" y2="2000" stroke="#455B66" stroke-width="3"/>
<line x1="349.5" y1="-6.55671e-08" x2="349.5" y2="2000" stroke="#455B66" stroke-width="3"/>
<line x1="399.5" y1="-6.55671e-08" x2="399.5" y2="2000" stroke="#455B66" stroke-width="3"/>
<line x1="449.5" y1="-6.55671e-08" x2="449.5" y2="2000" stroke="#455B66" stroke-width="3"/>
<line x1="499.5" y1="-6.55671e-08" x2="499.5" y2="2000" stroke="#455B66" stroke-width="3"/>
<line x1="549.5" y1="-6.55671e-08" x2="549.5" y2="2000" stroke="#455B66" stroke-width="3"/>
<line x1="599.5" y1="-6.55671e-08" x2="599.5" y2="2000" stroke="#455B66" stroke-width="3"/>
<line x1="649.5" y1="-6.55671e-08" x2="649.5" y2="2000" stroke="#455B66" stroke-width="3"/>
<line x1="699.5" y1="-6.55671e-08" x2="699.5" y2="2000" stroke="#455B66" stroke-width="3"/>
<line x1="749.5" y1="-6.55671e-08" x2="749.5" y2="2000" stroke="#455B66" stroke-width="3"/>
<line x1="799.5" y1="-6.55671e-08" x2="799.5" y2="2000" stroke="#455B66" stroke-width="3"/>
<line x1="849.5" y1="-6.55671e-08" x2="849.5" y2="2000" stroke="#455B66" stroke-width="3"/>
<line x1="899.5" y1="-6.55671e-08" x2="899.5" y2="2000" stroke="#455B66" stroke-width="3"/>
<line x1="2000" y1="76.5" y2="76.5" stroke="#455B66" stroke-width="3"/>
<line x1="2000" y1="151.5" y2="151.5" stroke="#455B66" stroke-width="3"/>
<line x1="2000" y1="226.5" y2="226.5" stroke="#455B66" stroke-width="3"/>
<line x1="2000" y1="301.5" y2="301.5" stroke="#455B66" stroke-width="3"/>
<line x1="2000" y1="376.5" y2="376.5" stroke="#455B66" stroke-width="3"/>
<line x1="2000" y1="451.5" y2="451.5" stroke="#455B66" stroke-width="3"/>
<line x1="2000" y1="526.5" y2="526.5" stroke="#455B66" stroke-width="3"/>
<line x1="2000" y1="601.5" y2="601.5" stroke="#455B66" stroke-width="3"/>
<line x1="2000" y1="676.5" y2="676.5" stroke="#455B66" stroke-width="3"/>
<line x1="2000" y1="751.5" y2="751.5" stroke="#455B66" stroke-width="3"/>
<line x1="2000" y1="826.5" y2="826.5" stroke="#455B66" stroke-width="3"/>
<line x1="2000" y1="901.5" y2="901.5" stroke="#455B66" stroke-width="3"/>
<line x1="2000" y1="976.5" y2="976.5" stroke="#455B66" stroke-width="3"/>
<line x1="2000" y1="1051.5" y2="1051.5" stroke="#455B66" stroke-width="3"/>
<line x1="2000" y1="1126.5" y2="1126.5" stroke="#455B66" stroke-width="3"/>
<line x1="2000" y1="1201.5" y2="1201.5" stroke="#455B66" stroke-width="3"/>
<line x1="2000" y1="1276.5" y2="1276.5" stroke="#455B66" stroke-width="3"/>
<line x1="2000" y1="1351.5" y2="1351.5" stroke="#455B66" stroke-width="3"/>
<line x1="2000" y1="1426.5" y2="1426.5" stroke="#455B66" stroke-width="3"/>
<line x1="2000" y1="1501.5" y2="1501.5" stroke="#455B66" stroke-width="3"/>
<line x1="2000" y1="1576.5" y2="1576.5" stroke="#455B66" stroke-width="3"/>
<line x1="2000" y1="1651.5" y2="1651.5" stroke="#455B66" stroke-width="3"/>
<line x1="2000" y1="1726.5" y2="1726.5" stroke="#455B66" stroke-width="3"/>
<line x1="2000" y1="1801.5" y2="1801.5" stroke="#455B66" stroke-width="3"/>
<line x1="2000" y1="1876.5" y2="1876.5" stroke="#455B66" stroke-width="3"/>
<line x1="2000" y1="1951.5" y2="1951.5" stroke="#455B66" stroke-width="3"/>
</svg>
