<svg width="32" height="2000" viewBox="0 0 32 2000" fill="none" xmlns="http://www.w3.org/2000/svg">
<rect y="2000" width="2000" height="32.0001" transform="rotate(-90 0 2000)" fill="#455B66"/>
<path d="M9.68022 86H6.818L15.0964 63.4545H17.9146L26.193 86H23.3308L16.5936 67.0213H16.4174L9.68022 86ZM10.737 77.1932H22.274V79.6151H10.737V77.1932Z" fill="white"/>
<path d="M9.14906 161V138.455H17.0312C18.6017 138.455 19.897 138.726 20.9172 139.269C21.9373 139.805 22.6969 140.528 23.1959 141.438C23.695 142.341 23.9445 143.342 23.9445 144.443C23.9445 145.412 23.772 146.212 23.4271 146.843C23.0895 147.474 22.6418 147.973 22.0841 148.34C21.5336 148.707 20.9355 148.979 20.2897 149.155V149.375C20.9796 149.419 21.6731 149.661 22.3703 150.102C23.0675 150.542 23.651 151.173 24.1207 151.995C24.5903 152.817 24.8252 153.822 24.8252 155.011C24.8252 156.142 24.5683 157.158 24.0546 158.061C23.5409 158.963 22.7299 159.679 21.6217 160.207C20.5135 160.736 19.0714 161 17.2954 161H9.14906ZM11.8792 158.578H17.2954C19.0787 158.578 20.3447 158.233 21.0933 157.543C21.8492 156.846 22.2272 156.002 22.2272 155.011C22.2272 154.248 22.0327 153.544 21.6437 152.898C21.2548 152.245 20.7007 151.723 19.9814 151.335C19.2622 150.938 18.4109 150.74 17.4275 150.74H11.8792V158.578ZM11.8792 148.362H16.9431C17.7651 148.362 18.5063 148.201 19.1668 147.878C19.8347 147.555 20.3631 147.1 20.752 146.513C21.1483 145.926 21.3465 145.236 21.3465 144.443C21.3465 143.452 21.0016 142.612 20.3117 141.922C19.6218 141.225 18.5283 140.876 17.0312 140.876H11.8792V148.362Z" fill="white"/>
<path d="M26.0953 220.5H23.3652C23.2037 219.715 22.9212 219.025 22.5175 218.43C22.1212 217.836 21.6369 217.337 21.0644 216.933C20.4993 216.522 19.8718 216.214 19.182 216.009C18.4921 215.803 17.7729 215.7 17.0243 215.7C15.6592 215.7 14.4226 216.045 13.3144 216.735C12.2136 217.425 11.3365 218.441 10.6834 219.784C10.0375 221.127 9.71462 222.775 9.71462 224.727C9.71462 226.679 10.0375 228.327 10.6834 229.67C11.3365 231.013 12.2136 232.03 13.3144 232.719C14.4226 233.409 15.6592 233.754 17.0243 233.754C17.7729 233.754 18.4921 233.652 19.182 233.446C19.8718 233.241 20.4993 232.936 21.0644 232.532C21.6369 232.121 22.1212 231.619 22.5175 231.024C22.9212 230.422 23.2037 229.732 23.3652 228.955H26.0953C25.8898 230.107 25.5155 231.138 24.9724 232.048C24.4293 232.958 23.7542 233.732 22.9469 234.371C22.1396 235.002 21.2332 235.483 20.2278 235.813C19.2297 236.143 18.1618 236.308 17.0243 236.308C15.1015 236.308 13.3915 235.839 11.8943 234.899C10.3972 233.96 9.21924 232.624 8.36057 230.892C7.50191 229.16 7.07258 227.105 7.07258 224.727C7.07258 222.349 7.50191 220.295 8.36057 218.562C9.21924 216.83 10.3972 215.495 11.8943 214.555C13.3915 213.616 15.1015 213.146 17.0243 213.146C18.1618 213.146 19.2297 213.311 20.2278 213.642C21.2332 213.972 22.1396 214.456 22.9469 215.095C23.7542 215.726 24.4293 216.497 24.9724 217.407C25.5155 218.309 25.8898 219.34 26.0953 220.5Z" fill="white"/>
<path d="M15.0469 311H8.08949V288.455H15.3551C17.5421 288.455 19.4136 288.906 20.9695 289.809C22.5253 290.704 23.7179 291.992 24.5472 293.673C25.3765 295.346 25.7912 297.349 25.7912 299.683C25.7912 302.032 25.3729 304.054 24.5362 305.749C23.6996 307.437 22.4813 308.736 20.8814 309.646C19.2815 310.549 17.3366 311 15.0469 311ZM10.8196 308.578H14.8707C16.7348 308.578 18.2797 308.219 19.5053 307.499C20.7309 306.78 21.6446 305.756 22.2464 304.428C22.8482 303.1 23.1491 301.518 23.1491 299.683C23.1491 297.863 22.8519 296.296 22.2575 294.983C21.663 293.662 20.775 292.649 19.5934 291.944C18.4118 291.232 16.9403 290.876 15.179 290.876H10.8196V308.578Z" fill="white"/>
<path d="M9.96644 386V363.455H23.573V365.876H12.6966V373.494H22.8684V375.916H12.6966V383.578H23.7491V386H9.96644Z" fill="white"/>
<path d="M10.1329 461V438.455H23.6514V440.876H12.8631V448.494H22.6386V450.916H12.8631V461H10.1329Z" fill="white"/>
<path d="M22.623 520.5C22.3808 519.759 22.0616 519.095 21.6653 518.507C21.2763 517.913 20.8103 517.407 20.2672 516.988C19.7314 516.57 19.1223 516.251 18.4398 516.031C17.7572 515.81 17.0087 515.7 16.194 515.7C14.8583 515.7 13.6437 516.045 12.5502 516.735C11.4567 517.425 10.587 518.441 9.94118 519.784C9.29535 521.127 8.97243 522.775 8.97243 524.727C8.97243 526.679 9.29902 528.327 9.95219 529.67C10.6054 531.013 11.4897 532.03 12.6052 532.719C13.7208 533.409 14.9757 533.754 16.3702 533.754C17.6618 533.754 18.7994 533.479 19.7828 532.929C20.7736 532.371 21.5442 531.586 22.0946 530.573C22.6524 529.553 22.9312 528.353 22.9312 526.973L23.7679 527.149H16.9866V524.727H25.5733V527.149C25.5733 529.006 25.177 530.621 24.3844 531.993C23.5991 533.365 22.5129 534.429 21.1258 535.185C19.7461 535.934 18.1609 536.308 16.3702 536.308C14.3739 536.308 12.6199 535.839 11.1081 534.899C9.60359 533.96 8.42935 532.624 7.58536 530.892C6.74871 529.16 6.33039 527.105 6.33039 524.727C6.33039 522.944 6.56891 521.34 7.04594 519.917C7.53032 518.485 8.21285 517.267 9.09353 516.262C9.97421 515.256 11.0164 514.486 12.2199 513.95C13.4235 513.414 14.7482 513.146 16.194 513.146C17.3829 513.146 18.4911 513.326 19.5186 513.686C20.5534 514.038 21.4744 514.541 22.2817 515.194C23.0964 515.84 23.7752 516.614 24.3183 517.517C24.8614 518.412 25.2357 519.406 25.4412 520.5H22.623Z" fill="white"/>
<path d="M7.75648 611V588.455H10.4866V598.494H22.5079V588.455H25.238V611H22.5079V600.916H10.4866V611H7.75648Z" fill="white"/>
<path d="M17.8582 663.455V686H15.1281V663.455H17.8582Z" fill="white"/>
<path d="M19.4448 738.455H22.1749V754.571C22.1749 756.009 21.9107 757.231 21.3823 758.237C20.8539 759.242 20.109 760.006 19.1476 760.527C18.1861 761.048 17.0523 761.308 15.7459 761.308C14.513 761.308 13.4158 761.084 12.4544 760.637C11.493 760.182 10.737 759.536 10.1866 758.699C9.63619 757.863 9.36097 756.868 9.36097 755.716H12.0471C12.0471 756.354 12.2048 756.912 12.5204 757.389C12.8433 757.859 13.2837 758.226 13.8414 758.49C14.3992 758.754 15.034 758.886 15.7459 758.886C16.5312 758.886 17.199 758.721 17.7495 758.391C18.2999 758.061 18.7182 757.576 19.0044 756.938C19.298 756.292 19.4448 755.503 19.4448 754.571V738.455Z" fill="white"/>
<path d="M9.11879 836V813.455H11.8489V824.639H12.1131L22.2409 813.455H25.8077L16.3404 823.626L25.8077 836H22.5051L14.6671 825.52L11.8489 828.69V836H9.11879Z" fill="white"/>
<path d="M10.0114 911V888.455H12.7415V908.578H23.2216V911H10.0114Z" fill="white"/>
<path d="M15.1138 1278.95H18.1081L20.6181 1282.26L21.2786 1283.14L25.0215 1288.11H22.0272L19.5613 1284.81L18.9448 1283.97L15.1138 1278.95ZM25.9462 1274.73C25.9462 1277.11 25.5169 1279.16 24.6582 1280.89C23.7995 1282.62 22.6216 1283.96 21.1245 1284.9C19.6273 1285.84 17.9173 1286.31 15.9945 1286.31C14.0717 1286.31 12.3617 1285.84 10.8645 1284.9C9.36737 1283.96 8.18945 1282.62 7.33079 1280.89C6.47212 1279.16 6.04279 1277.11 6.04279 1274.73C6.04279 1272.35 6.47212 1270.29 7.33079 1268.56C8.18945 1266.83 9.36737 1265.49 10.8645 1264.56C12.3617 1263.62 14.0717 1263.15 15.9945 1263.15C17.9173 1263.15 19.6273 1263.62 21.1245 1264.56C22.6216 1265.49 23.7995 1266.83 24.6582 1268.56C25.5169 1270.29 25.9462 1272.35 25.9462 1274.73ZM23.3042 1274.73C23.3042 1272.78 22.9776 1271.13 22.3244 1269.78C21.6786 1268.44 20.8016 1267.42 19.6934 1266.74C18.5925 1266.05 17.3596 1265.7 15.9945 1265.7C14.6294 1265.7 13.3928 1266.05 12.2846 1266.74C11.1838 1267.42 10.3068 1268.44 9.65359 1269.78C9.00775 1271.13 8.68484 1272.78 8.68484 1274.73C8.68484 1276.68 9.00775 1278.33 9.65359 1279.67C10.3068 1281.01 11.1838 1282.03 12.2846 1282.72C13.3928 1283.41 14.6294 1283.75 15.9945 1283.75C17.3596 1283.75 18.5925 1283.41 19.6934 1282.72C20.8016 1282.03 21.6786 1281.01 22.3244 1279.67C22.9776 1278.33 23.3042 1276.68 23.3042 1274.73Z" fill="white"/>
<path d="M8.81556 1361V1338.45H16.4335C18.1948 1338.45 19.6406 1338.76 20.7708 1339.36C21.901 1339.95 22.7377 1340.77 23.2808 1341.81C23.8238 1342.85 24.0954 1344.04 24.0954 1345.37C24.0954 1346.7 23.8238 1347.87 23.2808 1348.9C22.7377 1349.93 21.9047 1350.74 20.7818 1351.32C19.659 1351.9 18.2242 1352.19 16.4775 1352.19H10.3127V1349.73H16.3894C17.593 1349.73 18.5618 1349.55 19.2957 1349.2C20.0369 1348.85 20.5727 1348.35 20.9029 1347.7C21.2405 1347.05 21.4093 1346.27 21.4093 1345.37C21.4093 1344.47 21.2405 1343.68 20.9029 1343C20.5653 1342.33 20.0259 1341.8 19.2847 1341.44C18.5434 1341.06 17.5637 1340.88 16.3454 1340.88H11.5457V1361H8.81556ZM19.4278 1350.87L24.9761 1361H21.8056L16.3454 1350.87H19.4278Z" fill="white"/>
<path d="M21.1754 1419.09C21.0433 1417.98 20.5075 1417.11 19.5681 1416.49C18.6287 1415.88 17.4765 1415.57 16.1115 1415.57C15.1134 1415.57 14.24 1415.73 13.4914 1416.05C12.7502 1416.38 12.1704 1416.82 11.7521 1417.38C11.3411 1417.95 11.1356 1418.59 11.1356 1419.31C11.1356 1419.91 11.2787 1420.43 11.5649 1420.86C11.8585 1421.29 12.2328 1421.64 12.6878 1421.93C13.1428 1422.21 13.6199 1422.44 14.1189 1422.62C14.618 1422.8 15.0767 1422.94 15.495 1423.05L17.7848 1423.67C18.3719 1423.82 19.0251 1424.04 19.7443 1424.31C20.4708 1424.58 21.1644 1424.95 21.8249 1425.42C22.4927 1425.88 23.0432 1426.48 23.4762 1427.2C23.9092 1427.93 24.1257 1428.82 24.1257 1429.88C24.1257 1431.1 23.8064 1432.2 23.1679 1433.18C22.5368 1434.17 21.6121 1434.95 20.3938 1435.53C19.1828 1436.11 17.7114 1436.4 15.9794 1436.4C14.3648 1436.4 12.9667 1436.14 11.7851 1435.61C10.6109 1435.09 9.68615 1434.37 9.01096 1433.44C8.34311 1432.5 7.96515 1431.42 7.87709 1430.19H10.6953C10.7687 1431.04 11.0549 1431.74 11.5539 1432.3C12.0603 1432.85 12.6988 1433.26 13.4694 1433.53C14.2474 1433.8 15.084 1433.93 15.9794 1433.93C17.0215 1433.93 17.9572 1433.76 18.7865 1433.42C19.6158 1433.08 20.2727 1432.6 20.7571 1431.99C21.2414 1431.38 21.4836 1430.66 21.4836 1429.84C21.4836 1429.09 21.2745 1428.48 20.8561 1428.01C20.4378 1427.54 19.8874 1427.16 19.2049 1426.86C18.5223 1426.57 17.7848 1426.31 16.9921 1426.09L14.218 1425.3C12.4566 1424.79 11.0622 1424.07 10.0348 1423.13C9.00729 1422.19 8.49356 1420.96 8.49356 1419.44C8.49356 1418.18 8.83483 1417.08 9.51736 1416.14C10.2072 1415.19 11.1319 1414.46 12.2915 1413.94C13.4584 1413.41 14.7611 1413.15 16.1995 1413.15C17.6527 1413.15 18.9443 1413.41 20.0745 1413.93C21.2047 1414.44 22.1001 1415.15 22.7606 1416.04C23.4285 1416.94 23.7807 1417.95 23.8174 1419.09H21.1754Z" fill="white"/>
<path d="M7.55233 1490.88V1488.45H24.4614V1490.88H17.3719V1511H14.6418V1490.88H7.55233Z" fill="white"/>
<path d="M22.5368 1563.45H25.2669V1578.38C25.2669 1579.92 24.9036 1581.3 24.1771 1582.51C23.4578 1583.71 22.4414 1584.66 21.1277 1585.36C19.814 1586.05 18.2728 1586.4 16.5041 1586.4C14.7354 1586.4 13.1942 1586.05 11.8805 1585.36C10.5669 1584.66 9.54674 1583.71 8.82018 1582.51C8.10096 1581.3 7.74134 1579.92 7.74134 1578.38V1563.45H10.4715V1578.16C10.4715 1579.26 10.7136 1580.24 11.198 1581.1C11.6824 1581.95 12.3723 1582.62 13.2676 1583.12C14.1703 1583.6 15.2492 1583.84 16.5041 1583.84C17.7591 1583.84 18.8379 1583.6 19.7406 1583.12C20.6433 1582.62 21.3332 1581.95 21.8102 1581.1C22.2946 1580.24 22.5368 1579.26 22.5368 1578.16V1563.45Z" fill="white"/>
<path d="M9.68022 1638.45L16.3734 1657.43H16.6376L23.3308 1638.45H26.193L17.9146 1661H15.0964L6.818 1638.45H9.68022Z" fill="white"/>
<path d="M8.11239 1736L1.94762 1713.45H4.72177L9.43342 1731.82H9.65359L14.4533 1713.45H17.5357L22.3354 1731.82H22.5556L27.2672 1713.45H30.0414L23.8766 1736H21.0584L16.0826 1718.03H15.9064L10.9306 1736H8.11239Z" fill="white"/>
<path d="M10.1063 1788.45L15.9188 1797.83H16.0949L21.9074 1788.45H25.1219L18.0324 1799.73L25.1219 1811H21.9074L16.0949 1801.8H15.9188L10.1063 1811H6.89182L14.1574 1799.73L6.89182 1788.45H10.1063Z" fill="white"/>
<path d="M6.98451 1863.45H10.1109L16.3638 1873.98H16.628L22.8808 1863.45H26.0072L17.8609 1876.71V1886H15.1308V1876.71L6.98451 1863.45Z" fill="white"/>
<path d="M8.29403 1961V1959.02L20.4474 1940.88H8.16193V1938.45H23.706V1940.44L11.5526 1958.58H23.8381V1961H8.29403Z" fill="white"/>
<path d="M4.94056 963.455H8.19909L15.861 982.169H16.1252L23.7872 963.455H27.0457V986H24.4917V968.871H24.2715L17.2261 986H14.7602L7.71471 968.871H7.49454V986H4.94056V963.455Z" fill="white"/>
<path d="M24.9375 1038.45V1061H22.2955L10.01 1043.3H9.78982V1061H7.0597V1038.45H9.70175L22.0313 1056.2H22.2515V1038.45H24.9375Z" fill="white"/>
<path d="M25.9462 1124.73C25.9462 1127.11 25.5169 1129.16 24.6582 1130.89C23.7995 1132.62 22.6216 1133.96 21.1245 1134.9C19.6273 1135.84 17.9173 1136.31 15.9945 1136.31C14.0717 1136.31 12.3617 1135.84 10.8645 1134.9C9.36737 1133.96 8.18945 1132.62 7.33079 1130.89C6.47212 1129.16 6.04279 1127.11 6.04279 1124.73C6.04279 1122.35 6.47212 1120.29 7.33079 1118.56C8.18945 1116.83 9.36737 1115.49 10.8645 1114.56C12.3617 1113.62 14.0717 1113.15 15.9945 1113.15C17.9173 1113.15 19.6273 1113.62 21.1245 1114.56C22.6216 1115.49 23.7995 1116.83 24.6582 1118.56C25.5169 1120.29 25.9462 1122.35 25.9462 1124.73ZM23.3042 1124.73C23.3042 1122.78 22.9776 1121.13 22.3244 1119.78C21.6786 1118.44 20.8016 1117.42 19.6934 1116.74C18.5925 1116.05 17.3596 1115.7 15.9945 1115.7C14.6294 1115.7 13.3928 1116.05 12.2846 1116.74C11.1838 1117.42 10.3068 1118.44 9.65359 1119.78C9.00775 1121.13 8.68484 1122.78 8.68484 1124.73C8.68484 1126.68 9.00775 1128.33 9.65359 1129.67C10.3068 1131.01 11.1838 1132.03 12.2846 1132.72C13.3928 1133.41 14.6294 1133.75 15.9945 1133.75C17.3596 1133.75 18.5925 1133.41 19.6934 1132.72C20.8016 1132.03 21.6786 1131.01 22.3244 1129.67C22.9776 1128.33 23.3042 1126.68 23.3042 1124.73Z" fill="white"/>
<path d="M8.89125 1211V1188.45H16.5091C18.2778 1188.45 19.7236 1188.77 20.8465 1189.41C21.9767 1190.04 22.8134 1190.9 23.3564 1191.98C23.8995 1193.06 24.1711 1194.26 24.1711 1195.59C24.1711 1196.92 23.8995 1198.12 23.3564 1199.21C22.8207 1200.3 21.9914 1201.16 20.8685 1201.81C19.7457 1202.45 18.3072 1202.77 16.5532 1202.77H11.093V1200.34H16.4651C17.676 1200.34 18.6485 1200.13 19.3824 1199.72C20.1163 1199.3 20.6483 1198.73 20.9786 1198.02C21.3162 1197.3 21.485 1196.49 21.485 1195.59C21.485 1194.69 21.3162 1193.88 20.9786 1193.17C20.6483 1192.45 20.1126 1191.9 19.3714 1191.49C18.6301 1191.08 17.6467 1190.88 16.4211 1190.88H11.6214V1211H8.89125Z" fill="white"/>
</svg>
